<svg width="40" height="40" viewBox="0 0 40 40" fill="none" xmlns="http://www.w3.org/2000/svg">
<path d="M22.5 15V12.0234C22.5 10.6797 22.7969 10 24.8828 10H27.5V5H23.1328C17.7813 5 16.0156 7.45313 16.0156 11.6641V15H12.5V20H16.0156V35H22.5V20H26.9062L27.5 15H22.5ZM25.7969 18.75H22.5859H21.25V19.9609V33.75H17.2656V19.9609V18.75H16.1016H13.75V16.25H16.1016H17.2656V14.9609V11.6641C17.2656 9.75 17.6875 8.44531 18.4766 7.61719C19.3516 6.67969 20.9063 6.25 23.1328 6.25H26.25V8.75H24.8828C23.9453 8.75 22.7344 8.83594 21.9844 9.66406C21.3516 10.3672 21.25 11.2344 21.25 12.0156V14.9531V16.25H22.5859H26.0938L25.7969 18.75Z" fill="#FFF4F4"/>
</svg>
