<svg width="40" height="40" viewBox="0 0 40 40" fill="none" xmlns="http://www.w3.org/2000/svg">
<path d="M20 2.93332C15.3649 2.93332 14.7838 2.95297 12.9634 3.03602C11.1469 3.11894 9.90624 3.40741 8.82061 3.82933C7.69833 4.26548 6.74657 4.84904 5.79779 5.79782C4.849 6.74661 4.26544 7.69837 3.82929 8.82065C3.40737 9.90621 3.11891 11.1468 3.03598 12.9634C2.95293 14.7837 2.93335 15.3649 2.93335 20C2.93335 24.6349 2.95293 25.2161 3.03598 27.0365C3.11891 28.853 3.40737 30.0936 3.82929 31.1792C4.26544 32.3015 4.849 33.2532 5.79779 34.2021C6.74657 35.1509 7.69833 35.7344 8.82061 36.1706C9.90624 36.5924 11.1469 36.881 12.9634 36.9638C14.7838 37.0469 15.3649 37.0665 20 37.0665C24.635 37.0665 25.2162 37.0469 27.0365 36.9638C28.853 36.881 30.0937 36.5924 31.1792 36.1706C32.3015 35.7344 33.2533 35.1509 34.2021 34.2021C35.1509 33.2532 35.7345 32.3015 36.1706 31.1792C36.5925 30.0936 36.881 28.853 36.9639 27.0365C37.0469 25.2161 37.0666 24.6349 37.0666 20C37.0666 15.3649 37.0469 14.7837 36.9639 12.9634C36.881 11.1468 36.5925 9.90621 36.1706 8.82065C35.7345 7.69837 35.1509 6.74661 34.2021 5.79782C33.2533 4.84904 32.3015 4.26548 31.1792 3.82933C30.0937 3.40741 28.853 3.11894 27.0365 3.03602C25.2162 2.95297 24.635 2.93332 20 2.93332ZM20 6.00845C24.5569 6.00845 25.0967 6.02579 26.8963 6.1079C28.5603 6.18384 29.464 6.46187 30.0654 6.69553C30.862 7.00512 31.4305 7.37502 32.0277 7.9722C32.6249 8.56938 32.9948 9.13797 33.3044 9.93453C33.5381 10.5359 33.8161 11.4396 33.892 13.1036C33.9741 14.9032 33.9915 15.443 33.9915 20C33.9915 24.5569 33.9741 25.0967 33.892 26.8963C33.8161 28.5603 33.5381 29.4639 33.3044 30.0653C32.9948 30.8619 32.6249 31.4305 32.0277 32.0277C31.4305 32.6249 30.862 32.9947 30.0654 33.3043C29.464 33.538 28.5603 33.8161 26.8963 33.892C25.097 33.9741 24.5573 33.9915 20 33.9915C15.4426 33.9915 14.903 33.9741 13.1036 33.892C11.4396 33.8161 10.5359 33.538 9.93456 33.3043C9.13793 32.9947 8.56941 32.6249 7.97216 32.0277C7.37498 31.4305 7.00509 30.8619 6.69556 30.0653C6.46183 29.4639 6.1838 28.5603 6.10786 26.8963C6.02575 25.0967 6.00841 24.5569 6.00841 20C6.00841 15.443 6.02575 14.9032 6.10786 13.1036C6.1838 11.4396 6.46183 10.5359 6.69556 9.93453C7.00509 9.13797 7.37498 8.56938 7.97216 7.9722C8.56941 7.37502 9.13793 7.00512 9.93456 6.69553C10.5359 6.46187 11.4396 6.18384 13.1036 6.1079C14.9032 6.02579 15.443 6.00845 20 6.00845Z" fill="#FFF4F4"/>
<path d="M20 25.6888C16.8581 25.6888 14.3111 23.1418 14.3111 20C14.3111 16.858 16.8581 14.3111 20 14.3111C23.1418 14.3111 25.6888 16.858 25.6888 20C25.6888 23.1418 23.1418 25.6888 20 25.6888ZM20 11.236C15.1597 11.236 11.236 15.1597 11.236 20C11.236 24.8401 15.1597 28.7638 20 28.7638C24.8402 28.7638 28.7639 24.8401 28.7639 20C28.7639 15.1597 24.8402 11.236 20 11.236Z" fill="white"/>
<path d="M31.1582 10.8898C31.1582 12.0208 30.2412 12.9377 29.1102 12.9377C27.9791 12.9377 27.0622 12.0208 27.0622 10.8898C27.0622 9.75867 27.9791 8.8418 29.1102 8.8418C30.2412 8.8418 31.1582 9.75867 31.1582 10.8898Z" fill="white"/>
</svg>
